<svg xmlns="http://www.w3.org/2000/svg" xmlns:xlink="http://www.w3.org/1999/xlink" version="1.1" x="0px" y="0px" viewBox="0 0 100 125" style="enable-background:new 0 0 100 100;" xml:space="preserve"><g><path d="M94.02,11.92c-1.28-1.28-2.97-1.98-4.78-1.98s-3.5,0.7-4.78,1.98L45.21,51.18l-4.76,14.31l14.31-4.76   c0,0,35.66-35.66,35.66-35.66s0,0,0,0l3.59-3.6C95.3,20.2,96,18.5,96,16.7S95.3,13.2,94.02,11.92z M89.72,22.95l-6.73-6.73   l2.89-2.89c0.9-0.9,2.09-1.39,3.36-1.39s2.46,0.5,3.36,1.39S94,15.43,94,16.7s-0.5,2.46-1.39,3.36L89.72,22.95z M43.61,62.33   l3.15-9.46l6.32,6.32L43.61,62.33z M54.69,57.98l-6.73-6.73l33.61-33.61l6.73,6.73L54.69,57.98z"/><path d="M63.85,56.67c-0.48,0.27-0.65,0.88-0.38,1.36c1,1.79,1.53,3.82,1.53,5.89c0,6.51-5.19,11.81-11.64,12.02   c1.64-3.15,2.66-6.69,2.88-10.44c0.03-0.55-0.39-1.02-0.94-1.06c-0.54-0.04-1.03,0.39-1.06,0.94c-0.23,3.79-1.33,7.33-3.1,10.44   c-3.88-0.6-7.31-3.08-9.04-6.67c-0.24-0.5-0.84-0.71-1.33-0.47c-0.5,0.24-0.71,0.84-0.47,1.33c1.89,3.92,5.53,6.72,9.7,7.63   c-4.37,6.31-11.66,10.42-19.85,10.42C16.83,88.06,6,77.23,6,63.91s10.83-24.14,24.14-24.14c5.6,0,11.05,1.96,15.36,5.51   c0.43,0.35,1.06,0.29,1.41-0.13c0.35-0.43,0.29-1.06-0.13-1.41c-4.67-3.85-10.57-5.97-16.63-5.97C15.73,37.77,4,49.5,4,63.91   s11.73,26.14,26.14,26.14c9.23,0,17.4-4.82,22.06-12.13c0.25,0.01,0.5,0.03,0.75,0.03c7.74,0,14.04-6.3,14.04-14.04   c0-2.4-0.62-4.78-1.79-6.86C64.94,56.57,64.33,56.4,63.85,56.67z"/></g><text x="0" y="115" fill="#000000" font-size="5px" font-weight="bold" font-family="'Helvetica Neue', Helvetica, Arial-Unicode, Arial, Sans-serif">Created by Justin Blake</text><text x="0" y="120" fill="#000000" font-size="5px" font-weight="bold" font-family="'Helvetica Neue', Helvetica, Arial-Unicode, Arial, Sans-serif">from the Noun Project</text></svg>